<svg xmlns="http://www.w3.org/2000/svg" viewBox="0 0 397.44 295.92"><defs><style>.cls-1,.cls-4,.cls-5{fill:none;}.cls-1,.cls-2{stroke:#231f20;}.cls-1,.cls-2,.cls-3,.cls-4,.cls-5,.cls-6,.cls-7,.cls-8{stroke-miterlimit:10;}.cls-2{fill:#fff;}.cls-3{fill:#c49a6c;}.cls-3,.cls-4{stroke:#8b5e3c;}.cls-5{stroke:#e7068a;stroke-width:3px;}.cls-6{fill:#ed1c24;stroke:#ec008c;}.cls-7{fill:#8dc63f;stroke:#39b54a;}.cls-8{fill:#27aae1;stroke:#52caf5;}</style></defs><g id="Layer_2" data-name="Layer 2"><g id="Layer_1-2" data-name="Layer 1"><path class="cls-1" d="M350.74,143.33c-3.4,15.29-20.39,84-85.79,124.59-46.2,28.65-91.86,27.91-111.57,27.32C78.62,293,27.45,252.79,10.65,238.31"/><path class="cls-1" d="M350.74,143.33a292.54,292.54,0,0,0-99.07,23.49c-32.89,14.35-50.14,29.45-67.66,40.59-32.61,20.76-85.48,40.11-173.36,30.9"/><path class="cls-1" d="M180.91,111.81c1.23,17.18,1.93,36.2,1.64,56.78-.21,14.54-.88,28.23-1.86,41"/><path class="cls-1" d="M206.72,105.07a350.43,350.43,0,0,1,3.13,47.68,349.41,349.41,0,0,1-2.3,39.25"/><path class="cls-2" d="M66.21,17.4a226.48,226.48,0,0,1,23.4,60.71,216.53,216.53,0,0,1,3.07,78.74,416.9,416.9,0,0,1,96.48-46.38,428.4,428.4,0,0,1,111-21c-9.38-16.83-28.82-45.74-64.09-66.31C159.58-21.5,76.69,12.86,66.21,17.4Z"/><path class="cls-3" d="M19.59,241.88c75.1,8.72,123.11-7.18,153.19-23.49,32.95-17.87,58-43.65,111.83-60.25a282.18,282.18,0,0,1,62.55-11.75c-4.84,19-17.22,56.53-50.3,90.38-22.9,23.45-45.63,34.8-51.31,37.54C185.78,303.11,127,288.36,105.63,283A243.43,243.43,0,0,1,19.59,241.88Z"/><path class="cls-4" d="M344.6,155.56a288.89,288.89,0,0,0-86,24.28c-41.92,19.35-56.55,37.83-86.3,53.36C144.33,247.79,100.05,261.08,31.13,250"/><path class="cls-4" d="M339.25,170.9a525.14,525.14,0,0,0-82,31.15c-51,24.43-66.5,42-103.91,53.87-22.58,7.15-56.69,13.34-103.31,5.4"/><path class="cls-3" d="M205.06,189.61c-.66.55-1.9,1.57-3.49,2.8-4.84,3.72-7.66,5.27-14.28,9.9-.87.61-2.31,1.63-4.11,2.93a482.21,482.21,0,0,0,2.11-48.83c-.11-14.92-.91-28.88-2.13-41.74,2.64-.54,4.72-1.13,6.06-1.53,4.95-1.51,7.43-2.87,12.54-3.93,1.16-.24,2.12-.39,2.68-.48a413.79,413.79,0,0,1,2.3,47.11C206.63,167.83,206,179.12,205.06,189.61Z"/><path class="cls-5" d="M1.46,286.05c3.41-14.51,10.35-32.73,26-40.6,12.29-6.15,20.21-1.08,45.81-1.19A236.78,236.78,0,0,0,139,232.83c13.17-4.38,25.84-11.48,51.19-25.67,44.59-25,43.92-28.76,69-39.78,18.74-8.23,36.48-16,61.3-18.76,13.39-1.48,18.84-.39,29.72-3.17,21.63-5.54,36.73-19.22,46.06-29.82"/><path class="cls-4" d="M333.76,183.59c-14.84,7.09-37.05,18.08-63.45,32.76-36.52,20.31-49,29.84-64.85,38-25.6,13.25-65.67,25.95-127.11,20"/><path class="cls-4" d="M134.25,289c30.64-1.45,53.31-8.46,68.4-14.65,21.91-9,32.51-18.12,73.28-41.11,17.89-10.09,32.78-17.88,42.54-22.87"/><circle class="cls-6" cx="73.31" cy="244.26" r="4.74"/><circle class="cls-7" cx="190.22" cy="207.16" r="4.74"/><circle class="cls-8" cx="320.96" cy="149.42" r="4.74"/></g></g></svg>