<svg id="Help_Icon" data-name="Help Icon" xmlns="http://www.w3.org/2000/svg" width="56" height="56" viewBox="0 0 56 56">
  <g id="Ellipse_9" data-name="Ellipse 9" fill="#fff" stroke="#001e55" stroke-width="1">
    <circle cx="28" cy="28" r="28" stroke="none"/>
    <circle cx="28" cy="28" r="27.5" fill="none"/>
  </g>
  <path id="Path_2" data-name="Path 2" d="M25.283,25.921a4.463,4.463,0,0,1-.227-.857,5.409,5.409,0,0,1-.081-.9,5.342,5.342,0,0,1,.132-1.23,4.292,4.292,0,0,1,.4-1.047,4.948,4.948,0,0,1,.659-.937,8.475,8.475,0,0,1,.923-.886q.557-.469.974-.872a6.18,6.18,0,0,0,.71-.806,3.123,3.123,0,0,0,.439-.835,2.975,2.975,0,0,0,.146-.959,2.175,2.175,0,0,0-.161-.842,1.879,1.879,0,0,0-.461-.667A2.186,2.186,0,0,0,28,14.642a2.728,2.728,0,0,0-.959-.161,6.564,6.564,0,0,0-2.373.476A7.769,7.769,0,0,0,22.338,16.4V11.99A9.132,9.132,0,0,1,24.8,10.979a11.2,11.2,0,0,1,2.754-.337,10.187,10.187,0,0,1,2.534.3,5.83,5.83,0,0,1,2.043.945,4.442,4.442,0,0,1,1.362,1.648,5.439,5.439,0,0,1,.491,2.41,5.943,5.943,0,0,1-.205,1.619,5.435,5.435,0,0,1-.6,1.37,6.909,6.909,0,0,1-.981,1.238,18.174,18.174,0,0,1-1.348,1.223q-.513.425-.9.791a5.024,5.024,0,0,0-.645.725,2.808,2.808,0,0,0-.388.762,2.938,2.938,0,0,0-.132.916,2.846,2.846,0,0,0,.1.718,2.1,2.1,0,0,0,.256.615Zm2.139,6.416a2.793,2.793,0,0,1-1.948-.7,2.3,2.3,0,0,1-.776-1.729,2.2,2.2,0,0,1,.776-1.714,2.828,2.828,0,0,1,1.948-.688,2.754,2.754,0,0,1,1.919.688,2.187,2.187,0,0,1,.762,1.714,2.268,2.268,0,0,1-.747,1.743A2.774,2.774,0,0,1,27.421,32.337Z" transform="translate(0 8)" fill="#001e55"/>
</svg>
